<mxfile host="app.diagrams.net" agent="Mozilla/5.0 (Windows NT 10.0; Win64; x64) AppleWebKit/537.36 (KHTML, like Gecko) Chrome/138.0.0.0 Safari/537.36 Edg/138.0.0.0" version="27.2.0">
  <diagram id="dMFPq8Ma2SvLUkesaSkS" name="Page-1">
    <mxGraphModel dx="1723" dy="907" grid="1" gridSize="10" guides="1" tooltips="1" connect="1" arrows="1" fold="1" page="1" pageScale="1" pageWidth="1169" pageHeight="827" background="light-dark(#FFFFFF,#F7F7F7)" math="0" shadow="0">
      <root>
        <mxCell id="0" />
        <mxCell id="1" parent="0" />
        <mxCell id="d45avjFu-AIYiAAqqC4H-20" value="" style="edgeStyle=elbowEdgeStyle;elbow=horizontal;endArrow=classic;html=1;curved=0;rounded=1;endSize=8;startSize=8;fontSize=12;entryDx=0;entryDy=0;entryPerimeter=0;labelBackgroundColor=none;strokeColor=#788AA3;fontColor=default;exitX=0.65;exitY=0.578;exitDx=0;exitDy=0;exitPerimeter=0;" parent="1" edge="1">
          <mxGeometry width="50" height="50" relative="1" as="geometry">
            <mxPoint x="69" y="480" as="sourcePoint" />
            <mxPoint x="69" y="480" as="targetPoint" />
            <Array as="points" />
          </mxGeometry>
        </mxCell>
        <mxCell id="d45avjFu-AIYiAAqqC4H-77" value="" style="endArrow=classic;html=1;rounded=1;fontSize=12;startSize=8;endSize=8;curved=1;entryX=-0.004;entryY=0.81;entryDx=0;entryDy=0;exitX=0.99;exitY=0.727;exitDx=0;exitDy=0;exitPerimeter=0;labelBackgroundColor=none;strokeColor=#788AA3;fontColor=default;entryPerimeter=0;" parent="1" edge="1">
          <mxGeometry width="50" height="50" relative="1" as="geometry">
            <mxPoint x="90" y="477" as="sourcePoint" />
            <mxPoint x="639.6400000000003" y="476.0999999999999" as="targetPoint" />
          </mxGeometry>
        </mxCell>
        <mxCell id="UK6CqygBZyEi8A3h2Iro-17" value="c_s_eff" style="edgeLabel;html=1;align=center;verticalAlign=middle;resizable=0;points=[];fontColor=light-dark(#46495D,#46495D);labelBackgroundColor=light-dark(#D9D9D9,#DBDBDB);" parent="d45avjFu-AIYiAAqqC4H-77" vertex="1" connectable="0">
          <mxGeometry x="0.7231" y="-2" relative="1" as="geometry">
            <mxPoint x="-8" as="offset" />
          </mxGeometry>
        </mxCell>
        <mxCell id="d45avjFu-AIYiAAqqC4H-79" value="" style="endArrow=classic;html=1;rounded=1;fontSize=12;startSize=8;endSize=8;curved=1;entryX=-0.031;entryY=0.91;entryDx=0;entryDy=0;exitX=0.99;exitY=0.727;exitDx=0;exitDy=0;exitPerimeter=0;labelBackgroundColor=none;strokeColor=#788AA3;fontColor=default;entryPerimeter=0;" parent="1" edge="1">
          <mxGeometry width="50" height="50" relative="1" as="geometry">
            <mxPoint x="90" y="507" as="sourcePoint" />
            <mxPoint x="637.2100000000003" y="507.0999999999999" as="targetPoint" />
          </mxGeometry>
        </mxCell>
        <mxCell id="UK6CqygBZyEi8A3h2Iro-18" value="t_s_eff" style="edgeLabel;html=1;align=center;verticalAlign=middle;resizable=0;points=[];fontColor=light-dark(#46495D,#46495D);labelBackgroundColor=light-dark(#D9D9D9,#DBDBDB);" parent="d45avjFu-AIYiAAqqC4H-79" vertex="1" connectable="0">
          <mxGeometry x="0.7583" relative="1" as="geometry">
            <mxPoint x="-16" as="offset" />
          </mxGeometry>
        </mxCell>
        <mxCell id="PbpaKHzW4S6jHEZwpi4d-1" value="Ideal Brayton Cycle" style="rounded=1;whiteSpace=wrap;html=1;labelBackgroundColor=none;fillColor=light-dark(#A9C4EB,#A9C4EB);strokeColor=#788AA3;fontColor=light-dark(#46495D,#333333);" parent="1" vertex="1">
          <mxGeometry x="410" y="220" width="70" height="240" as="geometry" />
        </mxCell>
        <mxCell id="PbpaKHzW4S6jHEZwpi4d-2" value="" style="endArrow=classic;html=1;rounded=1;fontSize=12;startSize=8;endSize=8;curved=1;exitX=1.002;exitY=0.428;exitDx=0;exitDy=0;exitPerimeter=0;labelBackgroundColor=none;strokeColor=#788AA3;fontColor=default;verticalAlign=middle;" parent="1" edge="1">
          <mxGeometry width="50" height="50" relative="1" as="geometry">
            <mxPoint x="480" y="260" as="sourcePoint" />
            <mxPoint x="640" y="260" as="targetPoint" />
          </mxGeometry>
        </mxCell>
        <mxCell id="UK6CqygBZyEi8A3h2Iro-13" value="Wc_s" style="edgeLabel;html=1;align=center;verticalAlign=middle;resizable=0;points=[];fontColor=light-dark(#46495D,#46495D);labelBackgroundColor=light-dark(#D9D9D9,#DBDBDB);" parent="PbpaKHzW4S6jHEZwpi4d-2" vertex="1" connectable="0">
          <mxGeometry x="-0.0769" y="-2" relative="1" as="geometry">
            <mxPoint x="1" y="-2" as="offset" />
          </mxGeometry>
        </mxCell>
        <mxCell id="PbpaKHzW4S6jHEZwpi4d-4" value="" style="endArrow=classic;html=1;rounded=1;fontSize=12;startSize=8;endSize=8;curved=1;labelBackgroundColor=none;strokeColor=#788AA3;fontColor=default;verticalAlign=middle;entryX=0.002;entryY=0.38;entryDx=0;entryDy=0;exitX=1.003;exitY=0.355;exitDx=0;exitDy=0;exitPerimeter=0;entryPerimeter=0;" parent="1" edge="1">
          <mxGeometry width="50" height="50" relative="1" as="geometry">
            <mxPoint x="480.27" y="280.49999999999994" as="sourcePoint" />
            <mxPoint x="640.1800000000001" y="279.99999999999994" as="targetPoint" />
          </mxGeometry>
        </mxCell>
        <mxCell id="UK6CqygBZyEi8A3h2Iro-14" value="Wt_s" style="edgeLabel;html=1;align=center;verticalAlign=middle;resizable=0;points=[];fontColor=light-dark(#46495D,#46495D);labelBackgroundColor=light-dark(#D9D9D9,#DBDBDB);" parent="PbpaKHzW4S6jHEZwpi4d-4" vertex="1" connectable="0">
          <mxGeometry x="0.5725" y="1" relative="1" as="geometry">
            <mxPoint x="-51" as="offset" />
          </mxGeometry>
        </mxCell>
        <mxCell id="PbpaKHzW4S6jHEZwpi4d-8" value="Initial Conditions" style="rounded=1;whiteSpace=wrap;html=1;labelBackgroundColor=none;fillColor=light-dark(#B2C9AB,#CCFFCC);strokeColor=#788AA3;fontColor=light-dark(#46495D,#46495D);" parent="1" vertex="1">
          <mxGeometry x="20" y="220" width="70" height="310" as="geometry" />
        </mxCell>
        <mxCell id="PbpaKHzW4S6jHEZwpi4d-10" value="" style="endArrow=classic;html=1;rounded=1;fontSize=12;startSize=8;endSize=8;curved=1;exitX=0.999;exitY=0.472;exitDx=0;exitDy=0;exitPerimeter=0;labelBackgroundColor=none;strokeColor=#788AA3;fontColor=default;verticalAlign=middle;entryX=0;entryY=0.222;entryDx=0;entryDy=0;entryPerimeter=0;" parent="1" target="PbpaKHzW4S6jHEZwpi4d-18" edge="1">
          <mxGeometry width="50" height="50" relative="1" as="geometry">
            <mxPoint x="90" y="390" as="sourcePoint" />
            <mxPoint x="129.09000000000003" y="390.31999999999994" as="targetPoint" />
          </mxGeometry>
        </mxCell>
        <mxCell id="PbpaKHzW4S6jHEZwpi4d-21" value="T1" style="edgeLabel;html=1;align=center;verticalAlign=middle;resizable=0;points=[];fontColor=light-dark(#46495D,#46495D);labelBackgroundColor=light-dark(#D9D9D9,#DBDBDB);" parent="PbpaKHzW4S6jHEZwpi4d-10" vertex="1" connectable="0">
          <mxGeometry x="0.32" relative="1" as="geometry">
            <mxPoint x="-32" as="offset" />
          </mxGeometry>
        </mxCell>
        <mxCell id="PbpaKHzW4S6jHEZwpi4d-18" value="Fluid properties" style="rounded=1;whiteSpace=wrap;html=1;labelBackgroundColor=none;fillColor=light-dark(#B2C9AB,#CCFFCC);strokeColor=#788AA3;fontColor=light-dark(#46495D,#46495D);" parent="1" vertex="1">
          <mxGeometry x="230" y="370" width="70" height="90" as="geometry" />
        </mxCell>
        <mxCell id="PbpaKHzW4S6jHEZwpi4d-19" value="Preliminary calculations" style="rounded=1;whiteSpace=wrap;html=1;labelBackgroundColor=none;fillColor=light-dark(#A9C4EB,#FFF2CC);strokeColor=#788AA3;fontColor=light-dark(#46495D,#333333);" parent="1" vertex="1">
          <mxGeometry x="230" y="220" width="70" height="100" as="geometry" />
        </mxCell>
        <mxCell id="PbpaKHzW4S6jHEZwpi4d-22" value="" style="endArrow=classic;html=1;rounded=1;fontSize=12;startSize=8;endSize=8;curved=1;exitX=0.999;exitY=0.472;exitDx=0;exitDy=0;exitPerimeter=0;labelBackgroundColor=none;strokeColor=#788AA3;fontColor=default;verticalAlign=middle;entryX=0;entryY=0.667;entryDx=0;entryDy=0;entryPerimeter=0;" parent="1" target="PbpaKHzW4S6jHEZwpi4d-18" edge="1">
          <mxGeometry width="50" height="50" relative="1" as="geometry">
            <mxPoint x="90" y="430.02" as="sourcePoint" />
            <mxPoint x="140" y="430.02" as="targetPoint" />
          </mxGeometry>
        </mxCell>
        <mxCell id="PbpaKHzW4S6jHEZwpi4d-23" value="T3" style="edgeLabel;html=1;align=center;verticalAlign=middle;resizable=0;points=[];fontColor=light-dark(#46495D,#46495D);labelBackgroundColor=light-dark(#D9D9D9,#DBDBDB);" parent="PbpaKHzW4S6jHEZwpi4d-22" vertex="1" connectable="0">
          <mxGeometry x="0.32" relative="1" as="geometry">
            <mxPoint x="-32" as="offset" />
          </mxGeometry>
        </mxCell>
        <mxCell id="PbpaKHzW4S6jHEZwpi4d-24" value="" style="endArrow=none;dashed=1;html=1;rounded=0;exitX=0.25;exitY=1;exitDx=0;exitDy=0;strokeColor=#868686;" parent="1" source="PbpaKHzW4S6jHEZwpi4d-18" target="PbpaKHzW4S6jHEZwpi4d-26" edge="1">
          <mxGeometry width="50" height="50" relative="1" as="geometry">
            <mxPoint x="175" y="330" as="sourcePoint" />
            <mxPoint x="160" y="390" as="targetPoint" />
          </mxGeometry>
        </mxCell>
        <mxCell id="PbpaKHzW4S6jHEZwpi4d-25" value="" style="group" parent="1" vertex="1" connectable="0">
          <mxGeometry x="80" y="570" width="160" height="90" as="geometry" />
        </mxCell>
        <mxCell id="PbpaKHzW4S6jHEZwpi4d-26" value="" style="shape=datastore;whiteSpace=wrap;html=1;fillColor=#C3ABD0;strokeColor=#868686;" parent="PbpaKHzW4S6jHEZwpi4d-25" vertex="1">
          <mxGeometry x="45" width="60" height="60" as="geometry" />
        </mxCell>
        <mxCell id="PbpaKHzW4S6jHEZwpi4d-27" value="ideal_gas_properties.db /&amp;nbsp;get_fluid_properties_fromT" style="rounded=0;whiteSpace=wrap;html=1;strokeColor=none;fillColor=none;fontColor=#868686;" parent="PbpaKHzW4S6jHEZwpi4d-25" vertex="1">
          <mxGeometry x="10" y="70" width="150" height="20" as="geometry" />
        </mxCell>
        <mxCell id="PbpaKHzW4S6jHEZwpi4d-30" value="" style="endArrow=classic;html=1;rounded=1;fontSize=12;startSize=8;endSize=8;curved=1;exitX=0.999;exitY=0.472;exitDx=0;exitDy=0;exitPerimeter=0;labelBackgroundColor=none;strokeColor=#788AA3;fontColor=default;verticalAlign=middle;entryX=0;entryY=0.3;entryDx=0;entryDy=0;entryPerimeter=0;" parent="1" edge="1">
          <mxGeometry width="50" height="50" relative="1" as="geometry">
            <mxPoint x="90" y="240.01999999999998" as="sourcePoint" />
            <mxPoint x="230" y="240" as="targetPoint" />
          </mxGeometry>
        </mxCell>
        <mxCell id="PbpaKHzW4S6jHEZwpi4d-31" value="P1" style="edgeLabel;html=1;align=center;verticalAlign=middle;resizable=0;points=[];fontColor=light-dark(#46495D,#46495D);labelBackgroundColor=light-dark(#D9D9D9,#DBDBDB);" parent="PbpaKHzW4S6jHEZwpi4d-30" vertex="1" connectable="0">
          <mxGeometry x="0.32" relative="1" as="geometry">
            <mxPoint x="-32" as="offset" />
          </mxGeometry>
        </mxCell>
        <mxCell id="PbpaKHzW4S6jHEZwpi4d-34" value="" style="endArrow=classic;html=1;rounded=1;fontSize=12;startSize=8;endSize=8;curved=1;exitX=0.999;exitY=0.472;exitDx=0;exitDy=0;exitPerimeter=0;labelBackgroundColor=none;strokeColor=#788AA3;fontColor=default;verticalAlign=middle;entryX=-0.029;entryY=0.459;entryDx=0;entryDy=0;entryPerimeter=0;" parent="1" target="PbpaKHzW4S6jHEZwpi4d-1" edge="1">
          <mxGeometry width="50" height="50" relative="1" as="geometry">
            <mxPoint x="90" y="330" as="sourcePoint" />
            <mxPoint x="140" y="330" as="targetPoint" />
          </mxGeometry>
        </mxCell>
        <mxCell id="PbpaKHzW4S6jHEZwpi4d-35" value="rc" style="edgeLabel;html=1;align=center;verticalAlign=middle;resizable=0;points=[];fontColor=light-dark(#46495D,#46495D);labelBackgroundColor=light-dark(#D9D9D9,#DBDBDB);" parent="PbpaKHzW4S6jHEZwpi4d-34" vertex="1" connectable="0">
          <mxGeometry x="0.32" relative="1" as="geometry">
            <mxPoint x="-71" as="offset" />
          </mxGeometry>
        </mxCell>
        <mxCell id="PbpaKHzW4S6jHEZwpi4d-36" value="" style="endArrow=classic;html=1;rounded=1;fontSize=12;startSize=8;endSize=8;curved=1;exitX=0.999;exitY=0.472;exitDx=0;exitDy=0;exitPerimeter=0;labelBackgroundColor=none;strokeColor=#788AA3;fontColor=default;verticalAlign=middle;entryX=-0.029;entryY=0.538;entryDx=0;entryDy=0;entryPerimeter=0;" parent="1" target="PbpaKHzW4S6jHEZwpi4d-1" edge="1">
          <mxGeometry width="50" height="50" relative="1" as="geometry">
            <mxPoint x="90" y="350" as="sourcePoint" />
            <mxPoint x="140" y="350" as="targetPoint" />
          </mxGeometry>
        </mxCell>
        <mxCell id="PbpaKHzW4S6jHEZwpi4d-37" value="P4" style="edgeLabel;html=1;align=center;verticalAlign=middle;resizable=0;points=[];fontColor=light-dark(#46495D,#46495D);labelBackgroundColor=light-dark(#D9D9D9,#DBDBDB);" parent="PbpaKHzW4S6jHEZwpi4d-36" vertex="1" connectable="0">
          <mxGeometry x="0.32" relative="1" as="geometry">
            <mxPoint x="-71" as="offset" />
          </mxGeometry>
        </mxCell>
        <mxCell id="PbpaKHzW4S6jHEZwpi4d-38" value="" style="endArrow=classic;html=1;rounded=1;fontSize=12;startSize=8;endSize=8;curved=1;exitX=0.999;exitY=0.472;exitDx=0;exitDy=0;exitPerimeter=0;labelBackgroundColor=none;strokeColor=#788AA3;fontColor=default;verticalAlign=middle;entryX=-0.015;entryY=0.7;entryDx=0;entryDy=0;entryPerimeter=0;" parent="1" edge="1">
          <mxGeometry width="50" height="50" relative="1" as="geometry">
            <mxPoint x="90" y="300" as="sourcePoint" />
            <mxPoint x="228.95000000000005" y="300" as="targetPoint" />
          </mxGeometry>
        </mxCell>
        <mxCell id="PbpaKHzW4S6jHEZwpi4d-39" value="volumetric_flow_rate" style="edgeLabel;html=1;align=center;verticalAlign=middle;resizable=0;points=[];fontColor=light-dark(#46495D,#46495D);labelBackgroundColor=light-dark(#D9D9D9,#DBDBDB);" parent="PbpaKHzW4S6jHEZwpi4d-38" vertex="1" connectable="0">
          <mxGeometry x="0.32" relative="1" as="geometry">
            <mxPoint x="-32" as="offset" />
          </mxGeometry>
        </mxCell>
        <mxCell id="PbpaKHzW4S6jHEZwpi4d-41" value="" style="endArrow=classic;html=1;rounded=1;fontSize=12;startSize=8;endSize=8;curved=1;labelBackgroundColor=none;strokeColor=#788AA3;fontColor=default;verticalAlign=middle;entryX=0;entryY=0.5;entryDx=0;entryDy=0;" parent="1" target="PbpaKHzW4S6jHEZwpi4d-42" edge="1">
          <mxGeometry width="50" height="50" relative="1" as="geometry">
            <mxPoint x="300" y="240" as="sourcePoint" />
            <mxPoint x="309" y="240" as="targetPoint" />
          </mxGeometry>
        </mxCell>
        <mxCell id="PbpaKHzW4S6jHEZwpi4d-42" value="m_dot" style="rounded=1;whiteSpace=wrap;html=1;labelBackgroundColor=none;fillColor=light-dark(#D4E1F5,#9AC7BF);strokeColor=#788AA3;fontColor=light-dark(#46495D,#46495D);" parent="1" vertex="1">
          <mxGeometry x="330" y="230" width="50" height="20" as="geometry" />
        </mxCell>
        <mxCell id="PbpaKHzW4S6jHEZwpi4d-43" value="" style="endArrow=classic;html=1;rounded=1;fontSize=12;startSize=8;endSize=8;curved=1;labelBackgroundColor=none;strokeColor=#788AA3;fontColor=default;verticalAlign=middle;entryX=-0.018;entryY=0.497;entryDx=0;entryDy=0;entryPerimeter=0;exitX=1.016;exitY=0.505;exitDx=0;exitDy=0;exitPerimeter=0;" parent="1" source="PbpaKHzW4S6jHEZwpi4d-19" edge="1">
          <mxGeometry width="50" height="50" relative="1" as="geometry">
            <mxPoint x="302" y="270" as="sourcePoint" />
            <mxPoint x="409" y="270" as="targetPoint" />
          </mxGeometry>
        </mxCell>
        <mxCell id="PbpaKHzW4S6jHEZwpi4d-44" value="P3" style="edgeLabel;html=1;align=center;verticalAlign=middle;resizable=0;points=[];fontColor=light-dark(#46495D,#46495D);labelBackgroundColor=light-dark(#D9D9D9,#DBDBDB);" parent="PbpaKHzW4S6jHEZwpi4d-43" vertex="1" connectable="0">
          <mxGeometry x="0.32" relative="1" as="geometry">
            <mxPoint x="-31" as="offset" />
          </mxGeometry>
        </mxCell>
        <mxCell id="PbpaKHzW4S6jHEZwpi4d-45" value="" style="endArrow=classic;html=1;rounded=1;fontSize=12;startSize=8;endSize=8;curved=1;labelBackgroundColor=none;strokeColor=#788AA3;fontColor=default;verticalAlign=middle;entryX=-0.018;entryY=0.497;entryDx=0;entryDy=0;entryPerimeter=0;exitX=1.016;exitY=0.505;exitDx=0;exitDy=0;exitPerimeter=0;" parent="1" edge="1">
          <mxGeometry width="50" height="50" relative="1" as="geometry">
            <mxPoint x="301" y="381" as="sourcePoint" />
            <mxPoint x="409" y="380" as="targetPoint" />
          </mxGeometry>
        </mxCell>
        <mxCell id="PbpaKHzW4S6jHEZwpi4d-46" value="h_1" style="edgeLabel;html=1;align=center;verticalAlign=middle;resizable=0;points=[];fontColor=light-dark(#46495D,#46495D);labelBackgroundColor=light-dark(#D9D9D9,#DBDBDB);" parent="PbpaKHzW4S6jHEZwpi4d-45" vertex="1" connectable="0">
          <mxGeometry x="0.32" relative="1" as="geometry">
            <mxPoint x="-31" as="offset" />
          </mxGeometry>
        </mxCell>
        <mxCell id="PbpaKHzW4S6jHEZwpi4d-47" value="" style="endArrow=classic;html=1;rounded=1;fontSize=12;startSize=8;endSize=8;curved=1;labelBackgroundColor=none;strokeColor=#788AA3;fontColor=default;verticalAlign=middle;entryX=-0.018;entryY=0.497;entryDx=0;entryDy=0;entryPerimeter=0;exitX=1.016;exitY=0.505;exitDx=0;exitDy=0;exitPerimeter=0;" parent="1" edge="1">
          <mxGeometry width="50" height="50" relative="1" as="geometry">
            <mxPoint x="301" y="401.5" as="sourcePoint" />
            <mxPoint x="409" y="400.5" as="targetPoint" />
          </mxGeometry>
        </mxCell>
        <mxCell id="PbpaKHzW4S6jHEZwpi4d-48" value="pr_1" style="edgeLabel;html=1;align=center;verticalAlign=middle;resizable=0;points=[];fontColor=light-dark(#46495D,#46495D);labelBackgroundColor=light-dark(#D9D9D9,#DBDBDB);" parent="PbpaKHzW4S6jHEZwpi4d-47" vertex="1" connectable="0">
          <mxGeometry x="0.32" relative="1" as="geometry">
            <mxPoint x="-31" as="offset" />
          </mxGeometry>
        </mxCell>
        <mxCell id="PbpaKHzW4S6jHEZwpi4d-53" value="" style="group" parent="1" vertex="1" connectable="0">
          <mxGeometry x="480" y="110" width="195" height="90" as="geometry" />
        </mxCell>
        <mxCell id="PbpaKHzW4S6jHEZwpi4d-54" value="" style="shape=datastore;whiteSpace=wrap;html=1;fillColor=#C3ABD0;strokeColor=#868686;" parent="PbpaKHzW4S6jHEZwpi4d-53" vertex="1">
          <mxGeometry x="45" width="60" height="60" as="geometry" />
        </mxCell>
        <mxCell id="PbpaKHzW4S6jHEZwpi4d-55" value="ideal_gas_properties.db /&amp;nbsp;get_fluid_properties_fromPr" style="rounded=0;whiteSpace=wrap;html=1;strokeColor=none;fillColor=none;fontColor=#868686;" parent="PbpaKHzW4S6jHEZwpi4d-53" vertex="1">
          <mxGeometry x="22.5" y="70" width="150" height="20" as="geometry" />
        </mxCell>
        <mxCell id="PbpaKHzW4S6jHEZwpi4d-56" value="" style="endArrow=none;dashed=1;html=1;rounded=0;strokeColor=#868686;entryX=0.5;entryY=0;entryDx=0;entryDy=0;" parent="1" target="PbpaKHzW4S6jHEZwpi4d-1" edge="1">
          <mxGeometry width="50" height="50" relative="1" as="geometry">
            <mxPoint x="522" y="150" as="sourcePoint" />
            <mxPoint x="520" y="180" as="targetPoint" />
          </mxGeometry>
        </mxCell>
        <mxCell id="UK6CqygBZyEi8A3h2Iro-1" value="" style="endArrow=classic;html=1;rounded=1;fontSize=12;startSize=8;endSize=8;curved=1;exitX=0.999;exitY=0.472;exitDx=0;exitDy=0;exitPerimeter=0;labelBackgroundColor=none;strokeColor=#788AA3;fontColor=default;verticalAlign=middle;entryX=-0.018;entryY=0.497;entryDx=0;entryDy=0;entryPerimeter=0;" parent="1" edge="1">
          <mxGeometry width="50" height="50" relative="1" as="geometry">
            <mxPoint x="90" y="280.3" as="sourcePoint" />
            <mxPoint x="228.74" y="280.00000000000006" as="targetPoint" />
          </mxGeometry>
        </mxCell>
        <mxCell id="UK6CqygBZyEi8A3h2Iro-2" value="T1" style="edgeLabel;html=1;align=center;verticalAlign=middle;resizable=0;points=[];fontColor=light-dark(#46495D,#46495D);labelBackgroundColor=light-dark(#D9D9D9,#DBDBDB);" parent="UK6CqygBZyEi8A3h2Iro-1" vertex="1" connectable="0">
          <mxGeometry x="0.32" relative="1" as="geometry">
            <mxPoint x="-31" as="offset" />
          </mxGeometry>
        </mxCell>
        <mxCell id="UK6CqygBZyEi8A3h2Iro-3" value="" style="endArrow=classic;html=1;rounded=1;fontSize=12;startSize=8;endSize=8;curved=1;labelBackgroundColor=none;strokeColor=#788AA3;fontColor=default;verticalAlign=middle;entryX=-0.018;entryY=0.497;entryDx=0;entryDy=0;entryPerimeter=0;exitX=1.016;exitY=0.505;exitDx=0;exitDy=0;exitPerimeter=0;" parent="1" edge="1">
          <mxGeometry width="50" height="50" relative="1" as="geometry">
            <mxPoint x="301" y="441.5" as="sourcePoint" />
            <mxPoint x="409" y="440.5" as="targetPoint" />
          </mxGeometry>
        </mxCell>
        <mxCell id="UK6CqygBZyEi8A3h2Iro-4" value="pr_3" style="edgeLabel;html=1;align=center;verticalAlign=middle;resizable=0;points=[];fontColor=light-dark(#46495D,#46495D);labelBackgroundColor=light-dark(#D9D9D9,#DBDBDB);" parent="UK6CqygBZyEi8A3h2Iro-3" vertex="1" connectable="0">
          <mxGeometry x="0.32" relative="1" as="geometry">
            <mxPoint x="-31" as="offset" />
          </mxGeometry>
        </mxCell>
        <mxCell id="UK6CqygBZyEi8A3h2Iro-5" value="" style="endArrow=classic;html=1;rounded=1;fontSize=12;startSize=8;endSize=8;curved=1;labelBackgroundColor=none;strokeColor=#788AA3;fontColor=default;verticalAlign=middle;entryX=-0.018;entryY=0.497;entryDx=0;entryDy=0;entryPerimeter=0;exitX=1.016;exitY=0.505;exitDx=0;exitDy=0;exitPerimeter=0;" parent="1" edge="1">
          <mxGeometry width="50" height="50" relative="1" as="geometry">
            <mxPoint x="301" y="421" as="sourcePoint" />
            <mxPoint x="409" y="420" as="targetPoint" />
          </mxGeometry>
        </mxCell>
        <mxCell id="UK6CqygBZyEi8A3h2Iro-6" value="h_3" style="edgeLabel;html=1;align=center;verticalAlign=middle;resizable=0;points=[];fontColor=light-dark(#46495D,#46495D);labelBackgroundColor=light-dark(#D9D9D9,#DBDBDB);" parent="UK6CqygBZyEi8A3h2Iro-5" vertex="1" connectable="0">
          <mxGeometry x="0.32" relative="1" as="geometry">
            <mxPoint x="-31" as="offset" />
          </mxGeometry>
        </mxCell>
        <mxCell id="UK6CqygBZyEi8A3h2Iro-12" value="Irreversibilities" style="rounded=1;whiteSpace=wrap;html=1;labelBackgroundColor=none;fillColor=light-dark(#A9C4EB,#A9C4EB);strokeColor=#788AA3;fontColor=light-dark(#46495D,#333333);" parent="1" vertex="1">
          <mxGeometry x="640" y="220" width="90" height="310" as="geometry" />
        </mxCell>
        <mxCell id="UK6CqygBZyEi8A3h2Iro-21" value="h_1" style="rounded=1;whiteSpace=wrap;html=1;labelBackgroundColor=none;fillColor=light-dark(#B5739D,#F19C99);strokeColor=#788AA3;fontColor=light-dark(#46495D,#333333);" parent="1" vertex="1">
          <mxGeometry x="559.64" y="370" width="50" height="20" as="geometry" />
        </mxCell>
        <mxCell id="UK6CqygBZyEi8A3h2Iro-22" value="" style="endArrow=classic;html=1;rounded=1;fontSize=12;startSize=8;endSize=8;curved=1;entryX=0.004;entryY=0.35;entryDx=0;entryDy=0;entryPerimeter=0;exitX=1;exitY=0.5;exitDx=0;exitDy=0;labelBackgroundColor=none;strokeColor=#788AA3;fontColor=default;" parent="1" source="UK6CqygBZyEi8A3h2Iro-21" edge="1">
          <mxGeometry width="50" height="50" relative="1" as="geometry">
            <mxPoint x="370.64" y="490" as="sourcePoint" />
            <mxPoint x="640.0000000000001" y="379.5" as="targetPoint" />
          </mxGeometry>
        </mxCell>
        <mxCell id="UK6CqygBZyEi8A3h2Iro-23" value="h_3" style="rounded=1;whiteSpace=wrap;html=1;labelBackgroundColor=none;fillColor=light-dark(#B5739D,#F19C99);strokeColor=#788AA3;fontColor=light-dark(#46495D,#333333);" parent="1" vertex="1">
          <mxGeometry x="559.64" y="410" width="50" height="20" as="geometry" />
        </mxCell>
        <mxCell id="UK6CqygBZyEi8A3h2Iro-24" value="" style="endArrow=classic;html=1;rounded=1;fontSize=12;startSize=8;endSize=8;curved=1;entryX=0.004;entryY=0.35;entryDx=0;entryDy=0;entryPerimeter=0;exitX=1;exitY=0.5;exitDx=0;exitDy=0;labelBackgroundColor=none;strokeColor=#788AA3;fontColor=default;" parent="1" source="UK6CqygBZyEi8A3h2Iro-23" edge="1">
          <mxGeometry width="50" height="50" relative="1" as="geometry">
            <mxPoint x="370.64" y="530" as="sourcePoint" />
            <mxPoint x="640.0000000000001" y="419.5" as="targetPoint" />
          </mxGeometry>
        </mxCell>
        <mxCell id="QhyKsPdQeMrUCFwZ5U9G-1" value="Performance metrics" style="rounded=1;whiteSpace=wrap;html=1;labelBackgroundColor=none;fillColor=light-dark(#A9C4EB,#A9C4EB);strokeColor=#788AA3;fontColor=light-dark(#46495D,#333333);" parent="1" vertex="1">
          <mxGeometry x="880" y="220" width="80" height="240" as="geometry" />
        </mxCell>
        <mxCell id="QhyKsPdQeMrUCFwZ5U9G-2" value="" style="endArrow=classic;html=1;rounded=1;fontSize=12;startSize=8;endSize=8;curved=1;exitX=1.002;exitY=0.428;exitDx=0;exitDy=0;exitPerimeter=0;labelBackgroundColor=none;strokeColor=#788AA3;fontColor=default;verticalAlign=middle;" parent="1" edge="1">
          <mxGeometry width="50" height="50" relative="1" as="geometry">
            <mxPoint x="730" y="260" as="sourcePoint" />
            <mxPoint x="880" y="259" as="targetPoint" />
          </mxGeometry>
        </mxCell>
        <mxCell id="QhyKsPdQeMrUCFwZ5U9G-3" value="Wc" style="edgeLabel;html=1;align=center;verticalAlign=middle;resizable=0;points=[];fontColor=light-dark(#46495D,#46495D);labelBackgroundColor=light-dark(#D9D9D9,#DBDBDB);" parent="QhyKsPdQeMrUCFwZ5U9G-2" vertex="1" connectable="0">
          <mxGeometry x="-0.0769" y="-2" relative="1" as="geometry">
            <mxPoint x="1" y="-2" as="offset" />
          </mxGeometry>
        </mxCell>
        <mxCell id="QhyKsPdQeMrUCFwZ5U9G-6" value="" style="endArrow=classic;html=1;rounded=1;fontSize=12;startSize=8;endSize=8;curved=1;labelBackgroundColor=none;strokeColor=#788AA3;fontColor=default;verticalAlign=middle;exitX=1.003;exitY=0.355;exitDx=0;exitDy=0;exitPerimeter=0;" parent="1" edge="1">
          <mxGeometry width="50" height="50" relative="1" as="geometry">
            <mxPoint x="730" y="310.49999999999994" as="sourcePoint" />
            <mxPoint x="880" y="310" as="targetPoint" />
          </mxGeometry>
        </mxCell>
        <mxCell id="QhyKsPdQeMrUCFwZ5U9G-7" value="Wt" style="edgeLabel;html=1;align=center;verticalAlign=middle;resizable=0;points=[];fontColor=light-dark(#46495D,#46495D);labelBackgroundColor=light-dark(#D9D9D9,#DBDBDB);" parent="QhyKsPdQeMrUCFwZ5U9G-6" vertex="1" connectable="0">
          <mxGeometry x="0.5725" y="1" relative="1" as="geometry">
            <mxPoint x="-44" as="offset" />
          </mxGeometry>
        </mxCell>
        <mxCell id="QhyKsPdQeMrUCFwZ5U9G-9" value="" style="endArrow=classic;html=1;rounded=1;fontSize=12;startSize=8;endSize=8;curved=1;labelBackgroundColor=none;strokeColor=#788AA3;fontColor=default;verticalAlign=middle;exitX=1.003;exitY=0.355;exitDx=0;exitDy=0;exitPerimeter=0;" parent="1" edge="1">
          <mxGeometry width="50" height="50" relative="1" as="geometry">
            <mxPoint x="730" y="349.99999999999994" as="sourcePoint" />
            <mxPoint x="880" y="350" as="targetPoint" />
          </mxGeometry>
        </mxCell>
        <mxCell id="QhyKsPdQeMrUCFwZ5U9G-10" value="Qin" style="edgeLabel;html=1;align=center;verticalAlign=middle;resizable=0;points=[];fontColor=light-dark(#46495D,#46495D);labelBackgroundColor=light-dark(#D9D9D9,#DBDBDB);" parent="QhyKsPdQeMrUCFwZ5U9G-9" vertex="1" connectable="0">
          <mxGeometry x="0.5725" y="1" relative="1" as="geometry">
            <mxPoint x="-43" as="offset" />
          </mxGeometry>
        </mxCell>
        <mxCell id="QhyKsPdQeMrUCFwZ5U9G-11" value="" style="endArrow=classic;html=1;rounded=1;fontSize=12;startSize=8;endSize=8;curved=1;labelBackgroundColor=none;strokeColor=#788AA3;fontColor=default;verticalAlign=middle;exitX=1.003;exitY=0.355;exitDx=0;exitDy=0;exitPerimeter=0;" parent="1" edge="1">
          <mxGeometry width="50" height="50" relative="1" as="geometry">
            <mxPoint x="730" y="389.99999999999994" as="sourcePoint" />
            <mxPoint x="880" y="391" as="targetPoint" />
          </mxGeometry>
        </mxCell>
        <mxCell id="QhyKsPdQeMrUCFwZ5U9G-12" value="Qout" style="edgeLabel;html=1;align=center;verticalAlign=middle;resizable=0;points=[];fontColor=light-dark(#46495D,#46495D);labelBackgroundColor=light-dark(#D9D9D9,#DBDBDB);" parent="QhyKsPdQeMrUCFwZ5U9G-11" vertex="1" connectable="0">
          <mxGeometry x="0.5725" y="1" relative="1" as="geometry">
            <mxPoint x="-47" y="1" as="offset" />
          </mxGeometry>
        </mxCell>
        <mxCell id="QhyKsPdQeMrUCFwZ5U9G-14" value="m_dot" style="rounded=1;whiteSpace=wrap;html=1;labelBackgroundColor=none;fillColor=light-dark(#D4E1F5,#9AC7BF);strokeColor=#788AA3;fontColor=light-dark(#46495D,#46495D);" parent="1" vertex="1">
          <mxGeometry x="800" y="420" width="50" height="20" as="geometry" />
        </mxCell>
        <mxCell id="QhyKsPdQeMrUCFwZ5U9G-15" value="" style="endArrow=classic;html=1;rounded=1;fontSize=12;startSize=8;endSize=8;curved=1;entryX=0.004;entryY=0.35;entryDx=0;entryDy=0;entryPerimeter=0;exitX=1;exitY=0.5;exitDx=0;exitDy=0;labelBackgroundColor=none;strokeColor=#788AA3;fontColor=default;" parent="1" edge="1">
          <mxGeometry width="50" height="50" relative="1" as="geometry">
            <mxPoint x="850" y="430" as="sourcePoint" />
            <mxPoint x="880.0000000000001" y="429.5" as="targetPoint" />
          </mxGeometry>
        </mxCell>
        <mxCell id="QhyKsPdQeMrUCFwZ5U9G-18" value="" style="endArrow=classic;html=1;rounded=1;fontSize=12;startSize=8;endSize=8;curved=1;labelBackgroundColor=none;strokeColor=#788AA3;fontColor=default;verticalAlign=middle;entryX=0;entryY=0.5;entryDx=0;entryDy=0;" parent="1" target="QhyKsPdQeMrUCFwZ5U9G-19" edge="1">
          <mxGeometry width="50" height="50" relative="1" as="geometry">
            <mxPoint x="960" y="250" as="sourcePoint" />
            <mxPoint x="969" y="250" as="targetPoint" />
          </mxGeometry>
        </mxCell>
        <mxCell id="QhyKsPdQeMrUCFwZ5U9G-19" value="Wnet_work_based" style="rounded=1;whiteSpace=wrap;html=1;labelBackgroundColor=none;fillColor=light-dark(#D4E1F5,#9AC7BF);strokeColor=#788AA3;fontColor=light-dark(#46495D,#46495D);" parent="1" vertex="1">
          <mxGeometry x="990" y="240" width="120" height="20" as="geometry" />
        </mxCell>
        <mxCell id="QhyKsPdQeMrUCFwZ5U9G-22" value="" style="endArrow=classic;html=1;rounded=1;fontSize=12;startSize=8;endSize=8;curved=1;labelBackgroundColor=none;strokeColor=#788AA3;fontColor=default;verticalAlign=middle;entryX=0;entryY=0.5;entryDx=0;entryDy=0;" parent="1" target="QhyKsPdQeMrUCFwZ5U9G-23" edge="1">
          <mxGeometry width="50" height="50" relative="1" as="geometry">
            <mxPoint x="960" y="290" as="sourcePoint" />
            <mxPoint x="969" y="290" as="targetPoint" />
          </mxGeometry>
        </mxCell>
        <mxCell id="QhyKsPdQeMrUCFwZ5U9G-23" value="Wnet_heat_based" style="rounded=1;whiteSpace=wrap;html=1;labelBackgroundColor=none;fillColor=light-dark(#D4E1F5,#9AC7BF);strokeColor=#788AA3;fontColor=light-dark(#46495D,#46495D);" parent="1" vertex="1">
          <mxGeometry x="990" y="280" width="120" height="20" as="geometry" />
        </mxCell>
        <mxCell id="QhyKsPdQeMrUCFwZ5U9G-24" value="" style="endArrow=classic;html=1;rounded=1;fontSize=12;startSize=8;endSize=8;curved=1;labelBackgroundColor=none;strokeColor=#788AA3;fontColor=default;verticalAlign=middle;entryX=0;entryY=0.5;entryDx=0;entryDy=0;" parent="1" target="QhyKsPdQeMrUCFwZ5U9G-25" edge="1">
          <mxGeometry width="50" height="50" relative="1" as="geometry">
            <mxPoint x="960" y="330" as="sourcePoint" />
            <mxPoint x="969" y="330" as="targetPoint" />
          </mxGeometry>
        </mxCell>
        <mxCell id="QhyKsPdQeMrUCFwZ5U9G-25" value="bwr" style="rounded=1;whiteSpace=wrap;html=1;labelBackgroundColor=none;fillColor=light-dark(#D4E1F5,#9AC7BF);strokeColor=#788AA3;fontColor=light-dark(#46495D,#46495D);" parent="1" vertex="1">
          <mxGeometry x="990" y="320" width="50" height="20" as="geometry" />
        </mxCell>
        <mxCell id="QhyKsPdQeMrUCFwZ5U9G-30" value="" style="endArrow=classic;html=1;rounded=1;fontSize=12;startSize=8;endSize=8;curved=1;labelBackgroundColor=none;strokeColor=#788AA3;fontColor=default;verticalAlign=middle;entryX=0;entryY=0.5;entryDx=0;entryDy=0;" parent="1" target="QhyKsPdQeMrUCFwZ5U9G-31" edge="1">
          <mxGeometry width="50" height="50" relative="1" as="geometry">
            <mxPoint x="960" y="370" as="sourcePoint" />
            <mxPoint x="969" y="370" as="targetPoint" />
          </mxGeometry>
        </mxCell>
        <mxCell id="QhyKsPdQeMrUCFwZ5U9G-31" value="thermal_effiency" style="rounded=1;whiteSpace=wrap;html=1;labelBackgroundColor=none;fillColor=light-dark(#D4E1F5,#9AC7BF);strokeColor=#788AA3;fontColor=light-dark(#46495D,#46495D);" parent="1" vertex="1">
          <mxGeometry x="990" y="360" width="120" height="20" as="geometry" />
        </mxCell>
        <mxCell id="QhyKsPdQeMrUCFwZ5U9G-32" value="" style="endArrow=classic;html=1;rounded=1;fontSize=12;startSize=8;endSize=8;curved=1;labelBackgroundColor=none;strokeColor=#788AA3;fontColor=default;verticalAlign=middle;entryX=0;entryY=0.5;entryDx=0;entryDy=0;" parent="1" target="QhyKsPdQeMrUCFwZ5U9G-33" edge="1">
          <mxGeometry width="50" height="50" relative="1" as="geometry">
            <mxPoint x="960" y="420" as="sourcePoint" />
            <mxPoint x="969" y="420" as="targetPoint" />
          </mxGeometry>
        </mxCell>
        <mxCell id="QhyKsPdQeMrUCFwZ5U9G-33" value="power_output" style="rounded=1;whiteSpace=wrap;html=1;labelBackgroundColor=none;fillColor=light-dark(#D4E1F5,#9AC7BF);strokeColor=#788AA3;fontColor=light-dark(#46495D,#46495D);" parent="1" vertex="1">
          <mxGeometry x="990" y="410" width="120" height="20" as="geometry" />
        </mxCell>
        <mxCell id="Z81KaxpP7HEMf0QDX8c_-1" value="Wc" style="rounded=1;whiteSpace=wrap;html=1;labelBackgroundColor=none;fillColor=light-dark(#D4E1F5,#9AC7BF);strokeColor=#788AA3;fontColor=light-dark(#46495D,#46495D);" parent="1" vertex="1">
          <mxGeometry x="786" y="249" width="50" height="20" as="geometry" />
        </mxCell>
        <mxCell id="Z81KaxpP7HEMf0QDX8c_-4" value="Wt" style="rounded=1;whiteSpace=wrap;html=1;labelBackgroundColor=none;fillColor=light-dark(#D4E1F5,#9AC7BF);strokeColor=#788AA3;fontColor=light-dark(#46495D,#46495D);" parent="1" vertex="1">
          <mxGeometry x="787" y="300" width="50" height="20" as="geometry" />
        </mxCell>
        <mxCell id="Z81KaxpP7HEMf0QDX8c_-7" value="Qin" style="rounded=1;whiteSpace=wrap;html=1;labelBackgroundColor=none;fillColor=light-dark(#D4E1F5,#9AC7BF);strokeColor=#788AA3;fontColor=light-dark(#46495D,#46495D);" parent="1" vertex="1">
          <mxGeometry x="787" y="340" width="50" height="20" as="geometry" />
        </mxCell>
        <mxCell id="Z81KaxpP7HEMf0QDX8c_-9" value="Qout" style="rounded=1;whiteSpace=wrap;html=1;labelBackgroundColor=none;fillColor=light-dark(#D4E1F5,#9AC7BF);strokeColor=#788AA3;fontColor=light-dark(#46495D,#46495D);" parent="1" vertex="1">
          <mxGeometry x="786" y="380" width="50" height="20" as="geometry" />
        </mxCell>
        <mxCell id="WdgU5aUj_ZtNQ1iEgqHc-1" value="" style="endArrow=classic;html=1;rounded=1;fontSize=12;startSize=8;endSize=8;curved=1;exitX=0.999;exitY=0.472;exitDx=0;exitDy=0;exitPerimeter=0;labelBackgroundColor=none;strokeColor=#788AA3;fontColor=default;verticalAlign=middle;entryX=-0.014;entryY=0.4;entryDx=0;entryDy=0;entryPerimeter=0;" parent="1" target="PbpaKHzW4S6jHEZwpi4d-19" edge="1">
          <mxGeometry width="50" height="50" relative="1" as="geometry">
            <mxPoint x="90" y="260" as="sourcePoint" />
            <mxPoint x="408" y="260" as="targetPoint" />
          </mxGeometry>
        </mxCell>
        <mxCell id="WdgU5aUj_ZtNQ1iEgqHc-2" value="rc" style="edgeLabel;html=1;align=center;verticalAlign=middle;resizable=0;points=[];fontColor=light-dark(#46495D,#46495D);labelBackgroundColor=light-dark(#D9D9D9,#DBDBDB);" parent="WdgU5aUj_ZtNQ1iEgqHc-1" vertex="1" connectable="0">
          <mxGeometry x="0.32" relative="1" as="geometry">
            <mxPoint x="-32" as="offset" />
          </mxGeometry>
        </mxCell>
      </root>
    </mxGraphModel>
  </diagram>
</mxfile>
